PathFileType	3	(X/Y/Z)	D:\minhoCalibration\240510\subject1_KPNP\preferred\preferred09.trc
DataRate	CameraRate	NumFrames	NumMarkers	Units	OrigDataRate	OrigDataStartFrame	OrigNumFrames
200.0	200.0	24	10	mm	200.0	378	215	
Frame#	Time	Left_Ankle_Outer1			Left_Ankle_Inner1			Left_Knee_Outer1			Left_Knee_Inner1			Left_Wrist1			Right_Wrist1			Right_Knee_Inner1			Right_Knee_Outer1			Right_Ankle_Inner1			Right_Ankle_Outer1			
		X1	Y1	Z1	X2	Y2	Z2	X3	Y3	Z3	X4	Y4	Z4	X5	Y5	Z5	X6	Y6	Z6	X7	Y7	Z7	X8	Y8	Z8	X9	Y9	Z9	X10	Y10	Z10	
378	1.88	-514.82922	124.12856	-567.58405	-557.0838	128.9791	-528.27747	-419.77951	555.54285	-425.92178	-533.45544	522.78772	-423.8334	-450.94266	954.43927	-620.2641	-709.13257	971.44189	-859.8913	-703.15118	493.53625	-847.11017	-746.90436	536.51752	-943.56134	-622.992	108.49753	-1048.5453	-700.42743	115.59806	-1122.4265
379	1.885	-515.96381	123.3094	-566.85413	-558.48694	127.94329	-527.96167	-419.44025	553.79773	-423.58182	-533.21021	521.52283	-421.36707	-448.93396	952.66418	-618.0567	-708.27594	970.38635	-857.13788	-703.94519	492.44116	-843.59717	-748.21783	535.76141	-939.99689	-623.02979	108.76708	-1047.707	-700.48444	115.77471	-1121.599
380	1.89	-516.32202	122.79562	-566.74493	-559.1062	127.05873	-527.6579	-419.02094	552.16418	-421.07455	-532.89575	520.25879	-418.98761	-447.04196	950.98108	-615.84943	-707.65387	969.43335	-853.09064	-704.97437	491.41745	-839.72687	-749.78662	535.0105	-936.27209	-623.10065	109.33773	-1046.7557	-700.35822	117.0051	-1120.9393
381	1.895	-516.13214	122.06098	-566.61664	-559.30035	126.081	-527.9364	-418.71152	550.5733	-418.57739	-532.5127	518.94434	-416.74515	-445.12616	949.34363	-613.52655	-706.82318	968.33386	-850.2179	-706.30048	490.42728	-835.84479	-751.47809	534.26514	-932.36572	-623.20856	109.98552	-1045.6562	-700.19092	117.9169	-1120.011
382	1.9	-515.33319	120.97703	-566.3775	-558.46063	125.24955	-528.42133	-418.29175	548.98657	-415.94766	-532.03223	517.58838	-414.69049	-443.23941	947.71399	-611.14703	-706.0235	967.69104	-845.86572	-707.85284	489.45844	-831.61353	-753.41791	533.5896	-928.04059	-623.45038	110.86742	-1044.353	-700.11389	119.03967	-1119.0358
383	1.905	-513.4494	120.26643	-566.93256	-557.10516	124.32354	-529.51178	-417.97937	547.46173	-413.48077	-531.44855	516.36572	-412.30243	-441.30276	946.24585	-608.69995	-705.11658	966.57959	-841.90692	-709.60956	488.25003	-826.69196	-755.74445	533.03094	-923.59229	-623.84338	111.92358	-1042.9159	-700.22357	120.44583	-1117.8485
384	1.91	-510.99103	119.59606	-567.67981	-555.20306	123.38673	-531.22955	-417.48636	546.05609	-410.89822	-530.85944	515.03497	-410.34534	-439.35876	944.90479	-606.11072	-703.85352	965.23578	-836.12628	-711.94257	487.4306	-821.67792	-758.15527	532.56415	-918.79974	-624.27765	113.29416	-1041.3552	-700.36218	122.30567	-1116.5609
385	1.915	-507.76791	118.99939	-568.88043	-552.74286	122.5743	-532.97638	-417.56644	544.45837	-408.6763	-530.22992	513.79669	-408.75476	-437.25522	943.80151	-603.4693	-703.10858	965.28009	-833.70288	-714.65021	486.72668	-816.28821	-760.98175	532.28522	-913.53448	-624.32776	115.09657	-1039.9509	-700.57971	124.40827	-1115.1608
386	1.92	-504.18329	118.3429	-569.8139	-549.9845	121.68771	-535.02075	-417.47314	543.02405	-406.47415	-529.91589	512.52979	-407.40182	-435.15448	942.91614	-600.76312	-701.42126	964.39948	-830.13324	-718.13245	486.48807	-810.59247	-764.08777	532.13428	-907.87592	-625.50586	117.48674	-1037.7789	-700.89661	127.12149	-1113.4889
387	1.925	-500.3475	117.59596	-570.7074	-546.92603	120.93393	-537.06042	-417.41025	541.65125	-404.38019	-529.40344	511.38776	-406.30026	-432.91351	942.42804	-597.96838	-700.68066	963.77222	-823.7843	-721.52008	485.93274	-803.95862	-767.72302	532.23956	-901.84149	-626.34296	120.2411	-1035.653	-701.41742	130.1297	-1111.6477
388	1.93	-496.57126	116.62802	-571.21375	-543.89667	120.50402	-539.25946	-417.41837	540.30841	-402.38702	-529.07031	510.17493	-405.70715	-430.53784	942.30743	-595.05707	-699.64355	964.24213	-819.39703	-725.86121	486.2565	-797.06488	-771.68146	532.65265	-895.23828	-627.2926	123.52219	-1033.2753	-702.10089	133.90657	-1109.3655
389	1.935	-492.58627	115.73942	-571.92871	-540.90155	119.31565	-541.97815	-417.42877	538.99908	-400.48349	-528.81781	508.93921	-405.46893	-428.00281	942.62372	-592.03748	-698.2345	963.17102	-813.52753	-730.42108	486.6181	-789.29352	-776.10907	533.37299	-888.18164	-628.50421	127.30679	-1030.5009	-703.12347	138.1095	-1106.8597
390	1.94	-488.58408	115.3417	-573.00128	-537.80145	118.52766	-543.96246	-417.3999	537.71381	-398.68951	-528.44629	507.68887	-405.71909	-425.33212	943.29529	-588.86572	-696.97949	963.4967	-809.42743	-735.35297	487.28769	-780.70654	-781.00153	534.4632	-880.32764	-629.99396	132.10602	-1027.3979	-704.42816	142.97063	-1103.7186
391	1.945	-485.57956	114.10282	-573.15045	-534.78729	117.7369	-545.651	-417.08035	536.5741	-397.03336	-528.02191	506.46872	-406.37119	-422.53079	944.36029	-585.60834	-695.5788	964.17865	-803.78888	-740.79443	488.46475	-771.41565	-786.45306	535.88232	-871.62799	-631.80981	137.47043	-1023.7623	-706.18103	148.62816	-1100.019
392	1.95	-481.86832	113.66169	-574.21344	-532.00763	117.0235	-547.13434	-416.74664	535.47369	-395.53339	-527.65723	505.33395	-407.33704	-419.55496	945.797	-582.1839	-694.16382	964.29938	-798.32697	-746.67401	489.95551	-761.11591	-792.59583	537.90344	-862.64905	-634.0719	143.48389	-1019.4117	-708.43024	154.93877	-1095.6266
393	1.955	-479.20673	112.93845	-574.56964	-529.76569	116.32767	-548.48383	-416.15314	534.43958	-394.29138	-526.6875	504.52118	-408.41586	-416.45041	947.52582	-578.60443	-692.56085	965.04724	-793.17371	-752.68011	491.70554	-749.88824	-799.0282	540.08893	-851.94409	-637.0976	150.28621	-1014.1105	-711.17426	162.15469	-1090.4535
394	1.96	-477.056	112.09432	-574.84924	-527.95691	115.69379	-549.53479	-415.32071	533.45789	-393.34781	-525.83325	503.65393	-409.82132	-413.28299	949.54089	-574.95673	-691.09564	965.42273	-787.21497	-759.61682	494.35031	-737.97266	-806.00812	542.72589	-840.65826	-640.28595	157.78877	-1008.2274	-714.41223	169.92242	-1084.4177
395	1.965	-475.26315	111.37283	-575.10291	-526.4574	115.0686	-550.51294	-414.23682	532.57733	-392.85065	-524.64813	503.19797	-411.09671	-410.01218	951.72028	-571.19421	-689.3186	966.52448	-780.62915	-766.07617	496.87247	-725.20984	-813.07025	545.86035	-828.27301	-644.00873	165.98755	-1001.6462	-718.22211	178.42746	-1077.6306
396	1.97	-473.88583	110.61495	-575.23267	-525.39093	114.4389	-551.11682	-412.48193	531.82208	-392.62201	-522.81653	502.85803	-412.7002	-406.67575	954.12701	-567.39166	-687.45831	967.4494	-776.84253	-773.60632	501.24329	-711.552	-820.07178	549.24506	-814.51263	-647.51459	174.84402	-994.57404	-722.46814	187.43715	-1069.984
397	1.975	-472.9071	109.86517	-575.34509	-524.71381	113.6122	-551.76459	-410.99646	531.14191	-393.0517	-521.10217	502.59042	-414.08218	-403.27997	956.70038	-563.69043	-685.47229	969.01917	-770.41315	-780.88818	506.05112	-697.81183	-827.23236	553.57336	-801.08301	-651.53687	184.48898	-986.63855	-726.73846	197.1387	-1061.6217
398	1.98	-471.82437	109.21154	-575.5296	-523.30688	113.35651	-553.0459	-408.67178	530.66669	-393.53433	-518.91864	502.53864	-415.3331	-399.81277	959.39703	-560.00214	-683.71533	969.51984	-766.61261	-787.54401	511.3967	-683.26642	-833.61414	558.07739	-785.78107	-655.32416	194.61194	-978.16357	-730.77515	207.43123	-1052.738
399	1.985	-470.60486	108.88191	-575.78345	-522.25323	113.04579	-553.61749	-406.38419	530.2688	-394.44595	-516.52661	502.51846	-416.46616	-396.23544	962.19598	-556.49744	-682.26849	970.72632	-759.8432	-793.55817	517.31152	-668.19141	-839.95764	563.20172	-770.5658	-658.83112	205.43399	-968.91431	-734.47852	218.36133	-1043.0651
400	1.99	-469.29083	108.53631	-575.90619	-520.95996	112.98421	-554.13544	-404.11353	529.91827	-396.00595	-513.89038	502.67453	-417.35522	-392.55606	965.07111	-553.10242	-680.68262	972.65735	-753.6004	-798.69269	523.72363	-652.80505	-845.80518	568.79474	-754.75684	-661.98914	216.80322	-959.21606	-738.03552	229.87909	-1032.449
401	1.995	-467.76416	108.26759	-576.11829	-519.5329	112.92501	-554.68671	-401.55588	529.74756	-397.49118	-511.07364	502.98309	-417.98846	-388.78391	967.9632	-549.88184	-679.2478	974.26398	-747.63434	-802.79327	530.44122	-637.20917	-851.1048	574.65173	-738.51617	-664.44415	228.95636	-949.13153	-741.4942	241.54401	-1020.8888
